<svg xmlns="http://www.w3.org/2000/svg" xmlns:xlink="http://www.w3.org/1999/xlink" contentStyleType="text/css" data-diagram-type="STATE" height="676px" preserveAspectRatio="none" style="width:302px;height:676px;" version="1.1" viewBox="0 0 302 676" width="302px" zoomAndPan="magnify"><defs/><g><!--cluster Engine--><g class="cluster" data-entity="Engine" data-source-line="2" data-uid="ent0002" id="cluster_Engine"><path d="M19.5,7 L276.5,7 A12.5,12.5 0 0 1 289,19.5 L289,29.6094 L7,29.6094 L7,19.5 A12.5,12.5 0 0 1 19.5,7" fill="#FFFFE0" style="stroke:#FFFFE0;stroke-width:1;"/><rect fill="none" height="663" rx="12.5" ry="12.5" style="stroke:#8B0000;stroke-width:0.5;" width="282" x="7" y="7"/><line style="stroke:#8B0000;stroke-width:0.5;" x1="7" x2="289" y1="29.6094" y2="29.6094"/><text fill="#000000" font-family="sans-serif" font-size="14" lengthAdjust="spacing" textLength="43.5928" x="126.2036" y="25.5332">Engine</text></g><!--cluster Starting--><g class="cluster" data-entity="Starting" data-source-line="4" data-uid="ent0004" id="cluster_Starting"><path d="M59.5,266 L244.5,266 A12.5,12.5 0 0 1 257,278.5 L257,288.6094 L47,288.6094 L47,278.5 A12.5,12.5 0 0 1 59.5,266" fill="#FFFFE0" style="stroke:#FFFFE0;stroke-width:1;"/><rect fill="none" height="266" rx="12.5" ry="12.5" style="stroke:#8B0000;stroke-width:0.5;" width="210" x="47" y="266"/><line style="stroke:#8B0000;stroke-width:0.5;" x1="47" x2="257" y1="288.6094" y2="288.6094"/><text fill="#000000" font-family="sans-serif" font-size="14" lengthAdjust="spacing" textLength="48.248" x="127.876" y="284.5332">Starting</text></g><g id="Engine.Stopped"><rect fill="#FFFFE0" height="52.7031" rx="12.5" ry="12.5" style="stroke:#8B0000;stroke-width:0.5;" width="178.0508" x="51" y="149"/><line style="stroke:#8B0000;stroke-width:0.5;" x1="51" x2="229.0508" y1="176.6094" y2="176.6094"/><text fill="#000000" font-family="sans-serif" font-size="14" lengthAdjust="spacing" textLength="52.1582" x="113.9463" y="168.5332">Stopped</text><text fill="#000000" font-family="sans-serif" font-size="12" lengthAdjust="spacing" textLength="158.0508" x="56" y="194.0664">entry / ignition(off); starter(off)</text></g><g id="Engine.Running"><rect fill="#FFFFE0" height="50" rx="12.5" ry="12.5" style="stroke:#8B0000;stroke-width:0.5;" width="72.1514" x="94" y="596"/><line style="stroke:#8B0000;stroke-width:0.5;" x1="94" x2="166.1514" y1="623.6094" y2="623.6094"/><text fill="#000000" font-family="sans-serif" font-size="14" lengthAdjust="spacing" textLength="52.1514" x="104" y="615.5332">Running</text></g><ellipse cx="140" cy="61" fill="#222222" rx="10" ry="10" style="stroke:#222222;stroke-width:1;"/><g id="Engine.Starting.Ignition"><rect fill="#FFFFE0" height="52.7031" rx="12.5" ry="12.5" style="stroke:#8B0000;stroke-width:0.5;" width="178.0566" x="63" y="302"/><line style="stroke:#8B0000;stroke-width:0.5;" x1="63" x2="241.0566" y1="329.6094" y2="329.6094"/><text fill="#000000" font-family="sans-serif" font-size="14" lengthAdjust="spacing" textLength="45.1445" x="129.4561" y="321.5332">Ignition</text><text fill="#000000" font-family="sans-serif" font-size="12" lengthAdjust="spacing" textLength="158.0566" x="68" y="347.0664">entry / ignition(on); starter(off)</text></g><g id="Engine.Starting.Cranking"><rect fill="#FFFFE0" height="82.8906" rx="12.5" ry="12.5" style="stroke:#8B0000;stroke-width:0.5;" width="112.0273" x="74" y="433"/><line style="stroke:#8B0000;stroke-width:0.5;" x1="74" x2="186.0273" y1="460.6094" y2="460.6094"/><text fill="#000000" font-family="sans-serif" font-size="14" lengthAdjust="spacing" textLength="56.0273" x="102" y="452.5332">Cranking</text><text fill="#000000" font-family="sans-serif" font-size="12" lengthAdjust="spacing" textLength="92.0273" x="79" y="478.0664">entry / starter(on)</text><text fill="#000000" font-family="sans-serif" font-size="12" lengthAdjust="spacing" textLength="52.6934" x="79" y="493.1602">do / crank</text><text fill="#000000" font-family="sans-serif" font-size="12" lengthAdjust="spacing" textLength="84.0176" x="79" y="508.2539">exit / starter(off)</text></g><!--link *start*Engine to Stopped--><g class="link" data-entity-1="*start*Engine" data-entity-2="Stopped" data-source-line="9" data-uid="lnk3" id="link_*start*Engine_Stopped"><path d="M140,71.21 C140,88 140,118.15 140,142.9" fill="none" id="*start*Engine-to-Stopped" style="stroke:#8B0000;stroke-width:1;"/><polygon fill="#8B0000" points="140,148.9,144,139.9,140,143.9,136,139.9,140,148.9" style="stroke:#8B0000;stroke-width:1;"/></g><!--link Stopped to Ignition--><g class="link" data-entity-1="Stopped" data-entity-2="Ignition" data-source-line="10" data-uid="lnk4" id="link_Stopped_Ignition"><path d="M142.04,202.12 C144.24,229.88 147.2649,267.9588 149.4749,295.7788" fill="none" id="Stopped-to-Ignition" style="stroke:#8B0000;stroke-width:1;"/><polygon fill="#8B0000" points="149.95,301.76,153.2247,292.4715,149.5541,296.7757,145.2499,293.105,149.95,301.76" style="stroke:#8B0000;stroke-width:1;"/><text fill="#000000" font-family="sans-serif" font-size="13" lengthAdjust="spacing" textLength="25.2827" x="146" y="246.4951">start</text></g><!--link Ignition to Cranking--><g class="link" data-entity-1="Ignition" data-entity-2="Cranking" data-source-line="11" data-uid="lnk5" id="link_Ignition_Cranking"><path d="M148.07,355.24 C144.78,376.76 140.9352,401.9087 137.1352,426.8087" fill="none" id="Ignition-to-Cranking" style="stroke:#8B0000;stroke-width:1;"/><polygon fill="#8B0000" points="136.23,432.74,141.542,424.4465,136.9843,427.7972,133.6336,423.2396,136.23,432.74" style="stroke:#8B0000;stroke-width:1;"/><text fill="#000000" font-family="sans-serif" font-size="13" lengthAdjust="spacing" textLength="109.0654" x="143" y="399.4951">timeout(IGNITION)</text></g><!--link Cranking to Running--><g class="link" data-entity-1="Cranking" data-entity-2="Running" data-source-line="12" data-uid="lnk6" id="link_Cranking_Running"><path d="M130,516.14 C130,541.85 130,568.21 130,589.92" fill="none" id="Cranking-to-Running" style="stroke:#8B0000;stroke-width:1;"/><polygon fill="#8B0000" points="130,595.92,134,586.92,130,590.92,126,586.92,130,595.92" style="stroke:#8B0000;stroke-width:1;"/><text fill="#000000" font-family="sans-serif" font-size="13" lengthAdjust="spacing" textLength="111.9663" x="131" y="562.4951">[rpm &gt;= MIN_RPM]</text></g><!--link Engine to Stopped--><g class="link" data-entity-1="Engine" data-entity-2="Stopped" data-source-line="13" data-uid="lnk7" id="link_Engine_Stopped"><path d="M15.05,62.06 C15.52,62.65 19.45,67.46 23,71 C50.84,98.77 80.0968,124.4178 104.2068,144.7878" fill="none" id="Engine-to-Stopped" style="stroke:#8B0000;stroke-width:1;"/><polygon fill="#8B0000" points="108.79,148.66,104.4967,139.7962,104.9707,145.4331,99.3337,145.9071,108.79,148.66" style="stroke:#8B0000;stroke-width:1;"/><text fill="#000000" font-family="sans-serif" font-size="13" lengthAdjust="spacing" textLength="24.5718" x="74" y="115.4951">stop</text></g><!--SRC=[RP7D2i8m48JlVOhrfe9wL-n5H7AmYdghHSJ6icWt9Mv1aRwxIUnF17FBx3Up4z93kjpBLCBZXZJ6Chy73pwpX2LbI1BU0PZpbVQiYaAcC0L9h5ym0Sm86HNrrVKwc5bCizJkzkCpCb9MXtK3KTl_9jA_mCwxq6UwsT3Esz8qE5AgZ7Anq97a4zcVDscLLt9N4faufyJ314QZi7cmqvh7MzthxJ8Tq8gMyDenvbALt1UhI1p49lgkRW5BrxiD7EiYXt0EQn6TTjjrujZwAxn6Rh4gWke3]--></g></svg>