<svg xmlns="http://www.w3.org/2000/svg" xmlns:xlink="http://www.w3.org/1999/xlink" contentStyleType="text/css" data-diagram-type="CLASS" height="327px" preserveAspectRatio="none" style="width:266px;height:327px;" version="1.1" viewBox="0 0 266 327" width="266px" zoomAndPan="magnify"><defs/><g><!--cluster infinite--><g class="cluster" data-entity="infinite" data-source-line="2" data-uid="ent0002" id="cluster_infinite"><path d="M8.5,6 L55.3828,6 A3.75,3.75 0 0 1 57.8828,8.5 L64.8828,29.6094 L255.5,29.6094 A2.5,2.5 0 0 1 258,32.1094 L258,317.5 A2.5,2.5 0 0 1 255.5,320 L8.5,320 A2.5,2.5 0 0 1 6,317.5 L6,8.5 A2.5,2.5 0 0 1 8.5,6" fill="none" style="stroke:#8B0000;stroke-width:1.5;"/><line style="stroke:#8B0000;stroke-width:1.5;" x1="6" x2="64.8828" y1="29.6094" y2="29.6094"/><text fill="#000000" font-family="sans-serif" font-size="14" font-weight="bold" lengthAdjust="spacing" textLength="45.8828" x="10" y="22.5332">infinite</text></g><!--class state--><g class="entity" data-entity="state" data-source-line="3" data-uid="ent0003" id="entity_state"><rect fill="#FFFFE0" height="83.2188" rx="2.5" ry="2.5" style="stroke:#8B0000;stroke-width:0.5;" width="158.2822" x="22" y="221"/><ellipse cx="81.7153" cy="237" fill="#ADD1B2" rx="11" ry="11" style="stroke:#181818;stroke-width:1;"/><path d="M84.481,232.875 Q84.6372,232.6563 84.8247,232.5469 Q85.0122,232.4375 85.231,232.4375 Q85.606,232.4375 85.8403,232.7031 Q86.0747,232.9531 86.0747,233.5625 L86.0747,235.0156 Q86.0747,235.625 85.8403,235.8906 Q85.606,236.1563 85.231,236.1563 Q84.8872,236.1563 84.6841,235.9531 Q84.481,235.7656 84.3716,235.25 Q84.3247,234.8906 84.1372,234.7031 Q83.8091,234.3281 83.1997,234.1094 Q82.5903,233.8906 81.9653,233.8906 Q81.1997,233.8906 80.5591,234.2188 Q79.9341,234.5469 79.4341,235.2969 Q78.9497,236.0469 78.9497,237.0781 L78.9497,238.1719 Q78.9497,239.4063 79.8403,240.2344 Q80.731,241.0469 82.3247,241.0469 Q83.2622,241.0469 83.9185,240.7969 Q84.3091,240.6406 84.731,240.2031 Q84.9966,239.9375 85.1372,239.8594 Q85.2935,239.7813 85.4966,239.7813 Q85.8247,239.7813 86.0747,240.0469 Q86.3403,240.2969 86.3403,240.6406 Q86.3403,240.9844 85.9966,241.3906 Q85.4966,241.9688 84.6997,242.2969 Q83.6216,242.75 82.3247,242.75 Q80.8091,242.75 79.606,242.125 Q78.6216,241.625 77.9341,240.5625 Q77.2466,239.4844 77.2466,238.2031 L77.2466,237.0469 Q77.2466,235.7188 77.856,234.5781 Q78.481,233.4219 79.5747,232.8125 Q80.6685,232.1875 81.9028,232.1875 Q82.6372,232.1875 83.2778,232.3594 Q83.9341,232.5156 84.481,232.875 Z " fill="#000000"/><text fill="#000000" font-family="sans-serif" font-size="14" lengthAdjust="spacing" textLength="30.3516" x="102.2153" y="242.7285">state</text><line style="stroke:#8B0000;stroke-width:0.5;" x1="23" x2="179.2822" y1="253" y2="253"/><line style="stroke:#8B0000;stroke-width:0.5;" x1="23" x2="179.2822" y1="261" y2="261"/><ellipse cx="33" cy="275.3047" fill="#84BE84" rx="3" ry="3" style="stroke:#038048;stroke-width:1;"/><text fill="#000000" font-family="sans-serif" font-size="14" lengthAdjust="spacing" textLength="132.2822" x="42" y="279.5332">enter(state, machine)</text><ellipse cx="33" cy="292.9141" fill="#84BE84" rx="3" ry="3" style="stroke:#038048;stroke-width:1;"/><text fill="#000000" font-family="sans-serif" font-size="14" lengthAdjust="spacing" textLength="122.1582" x="42" y="297.1426">exit(state, machine)</text></g><!--class state_machine--><g class="entity" data-entity="state_machine" data-source-line="8" data-uid="ent0005" id="entity_state_machine"><rect fill="#FFFFE0" height="100.8281" rx="2.5" ry="2.5" style="stroke:#8B0000;stroke-width:0.5;" width="123.0547" x="39.5" y="42"/><ellipse cx="54.5" cy="58" fill="#ADD1B2" rx="11" ry="11" style="stroke:#181818;stroke-width:1;"/><path d="M57.2656,53.875 Q57.4219,53.6563 57.6094,53.5469 Q57.7969,53.4375 58.0156,53.4375 Q58.3906,53.4375 58.625,53.7031 Q58.8594,53.9531 58.8594,54.5625 L58.8594,56.0156 Q58.8594,56.625 58.625,56.8906 Q58.3906,57.1563 58.0156,57.1563 Q57.6719,57.1563 57.4688,56.9531 Q57.2656,56.7656 57.1563,56.25 Q57.1094,55.8906 56.9219,55.7031 Q56.5938,55.3281 55.9844,55.1094 Q55.375,54.8906 54.75,54.8906 Q53.9844,54.8906 53.3438,55.2188 Q52.7188,55.5469 52.2188,56.2969 Q51.7344,57.0469 51.7344,58.0781 L51.7344,59.1719 Q51.7344,60.4063 52.625,61.2344 Q53.5156,62.0469 55.1094,62.0469 Q56.0469,62.0469 56.7031,61.7969 Q57.0938,61.6406 57.5156,61.2031 Q57.7813,60.9375 57.9219,60.8594 Q58.0781,60.7813 58.2813,60.7813 Q58.6094,60.7813 58.8594,61.0469 Q59.125,61.2969 59.125,61.6406 Q59.125,61.9844 58.7813,62.3906 Q58.2813,62.9688 57.4844,63.2969 Q56.4063,63.75 55.1094,63.75 Q53.5938,63.75 52.3906,63.125 Q51.4063,62.625 50.7188,61.5625 Q50.0313,60.4844 50.0313,59.2031 L50.0313,58.0469 Q50.0313,56.7188 50.6406,55.5781 Q51.2656,54.4219 52.3594,53.8125 Q53.4531,53.1875 54.6875,53.1875 Q55.4219,53.1875 56.0625,53.3594 Q56.7188,53.5156 57.2656,53.875 Z " fill="#000000"/><text fill="#000000" font-family="sans-serif" font-size="14" lengthAdjust="spacing" textLength="91.0547" x="68.5" y="63.7285">state_machine</text><line style="stroke:#8B0000;stroke-width:0.5;" x1="40.5" x2="161.5547" y1="74" y2="74"/><line style="stroke:#8B0000;stroke-width:0.5;" x1="40.5" x2="161.5547" y1="82" y2="82"/><ellipse cx="50.5" cy="96.3047" fill="#84BE84" rx="3" ry="3" style="stroke:#038048;stroke-width:1;"/><text fill="#000000" font-family="sans-serif" font-size="14" lengthAdjust="spacing" textLength="66.9238" x="59.5" y="100.5332">goto(state)</text><ellipse cx="50.5" cy="113.9141" fill="#84BE84" rx="3" ry="3" style="stroke:#038048;stroke-width:1;"/><text fill="#000000" font-family="sans-serif" font-size="14" lengthAdjust="spacing" textLength="66.917" x="59.5" y="118.1426">top(): state</text><ellipse cx="50.5" cy="131.5234" fill="#84BE84" rx="3" ry="3" style="stroke:#038048;stroke-width:1;"/><text fill="#000000" font-family="sans-serif" font-size="14" lengthAdjust="spacing" textLength="84.8203" x="59.5" y="135.752">in(state): bool</text></g><!--link state to state--><g class="link" data-entity-1="state" data-entity-2="state" data-source-line="7" data-uid="lnk4" id="link_state_state"><path codeLine="7" d="M180.12,247.69 C200.06,248.7 215,253.63 215,262.5 C215,271.37 206.0523,275.9965 186.1123,277.0065" fill="none" id="state-to-state" style="stroke:#8B0000;stroke-width:1;"/><polygon fill="#8B0000" points="180.12,277.31,189.3108,280.8496,185.1136,277.0571,188.9061,272.8598,180.12,277.31" style="stroke:#8B0000;stroke-width:1;"/><text fill="#000000" font-family="sans-serif" font-size="13" lengthAdjust="spacing" textLength="32.519" x="221" y="267.9951">super</text></g><!--link state_machine to state--><g class="link" data-entity-1="state_machine" data-entity-2="state" data-source-line="13" data-uid="lnk6" id="link_state_machine_state"><path codeLine="13" d="M101,143.45 C101,168.11 101,191.49 101,214.77" fill="none" id="state_machine-to-state" style="stroke:#8B0000;stroke-width:1;"/><polygon fill="#8B0000" points="101,220.77,105,211.77,101,215.77,97,211.77,101,220.77" style="stroke:#8B0000;stroke-width:1;"/><text fill="#000000" font-family="sans-serif" font-size="13" lengthAdjust="spacing" textLength="97.5635" x="102" y="187.4951">states &#171;ordered&#187;</text><text fill="#000000" font-family="sans-serif" font-size="13" lengthAdjust="spacing" textLength="19.5127" x="80.4456" y="210.0396">0..*</text></g><!--SRC=[RKxH2eCm37ptApAVT9koPn5_PNHjve8rbRR2OFZlcxQeoEuX2NV9NKx4KeyAmNN49OszJWOXEz4Y43-9oIDy4lX1Qk4SE2zMPiO5sQFD5leAlP0lOintyflyNtLQQh0hYYPE5RXnG7iClCVJVN1hl0dEkpXlXYolmj764iV52Xx6w6F-wZx_aTxAyfnkxypTGLqRgz2YQffa-W80]--></g></svg>